<?xml version="1.0" encoding="utf-8"?>
<!-- Generator: Adobe Illustrator 21.0.0, SVG Export Plug-In . SVG Version: 6.00 Build 0)  -->
<svg version="1.1" id="Layer_1" xmlns="http://www.w3.org/2000/svg" xmlns:xlink="http://www.w3.org/1999/xlink" x="0px" y="0px"
	 viewBox="0 0 50.8 50.8" style="enable-background:new 0 0 50.8 50.8;" xml:space="preserve">
<style type="text/css">
	.st0{fill:#373A3C;}
	.st1{fill:#FFFFFF;stroke:#CCCCCC;stroke-width:3;stroke-miterlimit:10;}
</style>
<title>checkbox</title>
<g id="ok">
	<path class="st0" d="M40.3,17.8c0.2,0.2,0.3,0.6,0,0.9l0,0L21.9,37.1c-0.2,0.2-0.7,0.2-0.9,0L16.9,33L16,32.1l-5-5
		c-0.2-0.2-0.3-0.6,0-0.9l0,0l4.1-4.1c0.2-0.2,0.7-0.2,0.9,0l5,5c0.2,0.2,0.7,0.2,0.9,0l13.3-13.4c0.2-0.2,0.7-0.2,0.9,0L40.3,17.8z
		"/>
</g>
<circle class="st1" cx="25.4" cy="25.3" r="21.6"/>
</svg>
